{
  "accessors": [
    {
      "bufferView": 2,
      "componentType": 5126,
      "count": 4024,
      "max": [
        0.31855401396751404,
        1.25,
        0.8652759790420532
      ],
      "min": [
        -0.31855401396751404,
        -1.25,
        -0.8652759790420532
      ],
      "type": "VEC3"
    },
    {
      "bufferView": 2,
      "byteOffset": 48288,
      "componentType": 5126,
      "count": 4024,
      "max": [
        0.9998267292976379,
        0.9999547004699707,
        0.9999945759773254
      ],
      "min": [
        -0.9999948143959045,
        -0.9999768733978271,
        -0.9999944567680359
      ],
      "type": "VEC3"
    },
    {
      "bufferView": 1,
      "componentType": 5126,
      "count": 4024,
      "max": [
        0.9990000128746033,
        0.995199978351593
      ],
      "min": [
        0.5,
        0.5063499808311462
      ],
      "type": "VEC2"
    },
    {
      "bufferView": 0,
      "componentType": 5125,
      "count": 11862,
      "type": "SCALAR"
    }
  ],
  "asset": {
    "extras": {
      "author": "ippolitagalloeft (https://sketchfab.com/ippolitagalloeft)",
      "license": "CC-BY-4.0 (http://creativecommons.org/licenses/by/4.0/)",
      "source": "https://sketchfab.com/3d-models/the-cats-body-04ae93d572904be8b7d53a6ccb71c433",
      "title": "THE CAT'S BODY"
    },
    "generator": "Sketchfab-12.68.0",
    "version": "2.0"
  },
  "bufferViews": [
    {
      "buffer": 0,
      "byteLength": 47448,
      "name": "floatBufferViews",
      "target": 34963
    },
    {
      "buffer": 0,
      "byteLength": 32192,
      "byteOffset": 47448,
      "byteStride": 8,
      "name": "floatBufferViews",
      "target": 34962
    },
    {
      "buffer": 0,
      "byteLength": 96576,
      "byteOffset": 79640,
      "byteStride": 12,
      "name": "floatBufferViews",
      "target": 34962
    }
  ],
  "buffers": [
    {
      "byteLength": 176216,
      "uri": "scene.bin"
    }
  ],
  "extensionsUsed": [
    "KHR_materials_unlit"
  ],
  "images": [
    {
      "uri": "textures/mat_0-GatoTextura.jpg_baseColor.jpeg"
    }
  ],
  "materials": [
    {
      "doubleSided": true,
      "extensions": {
        "KHR_materials_unlit": {}
      },
      "name": "mat_0-GatoTextura.jpg",
      "pbrMetallicRoughness": {
        "baseColorTexture": {
          "index": 0
        },
        "metallicFactor": 0.0
      }
    }
  ],
  "meshes": [
    {
      "name": "Object_0",
      "primitives": [
        {
          "attributes": {
            "NORMAL": 1,
            "POSITION": 0,
            "TEXCOORD_0": 2
          },
          "indices": 3,
          "material": 0,
          "mode": 4
        }
      ]
    }
  ],
  "nodes": [
    {
      "children": [
        1
      ],
      "matrix": [
        1.0,
        -2.832769343193999e-16,
        -6.842791131287157e-32,
        0.0,
        4.002661120305586e-32,
        3.828568672208042e-16,
        -1.0,
        0.0,
        2.832769343193999e-16,
        1.0,
        3.828568672208042e-16,
        0.0,
        -1.5881867761018131e-22,
        2.350988701644575e-38,
        -1.0587911840678754e-22,
        1.0
      ],
      "name": "Sketchfab_model"
    },
    {
      "children": [
        2
      ],
      "name": "model.obj.cleaner.materialmerger.gles"
    },
    {
      "mesh": 0,
      "name": "Object_2"
    }
  ],
  "samplers": [
    {
      "magFilter": 9729,
      "minFilter": 9987,
      "wrapS": 10497,
      "wrapT": 10497
    }
  ],
  "scene": 0,
  "scenes": [
    {
      "name": "Sketchfab_Scene",
      "nodes": [
        0
      ]
    }
  ],
  "textures": [
    {
      "sampler": 0,
      "source": 0
    }
  ]
}
